{
	"asset":{
		"generator":"Khronos glTF Blender I/O v4.0.44",
		"version":"2.0"
	},
	"extensionsUsed":[
		"KHR_materials_specular",
		"KHR_materials_ior"
	],
	"scene":0,
	"scenes":[
		{
			"name":"Scene",
			"nodes":[
				0
			]
		}
	],
	"nodes":[
		{
			"mesh":0,
			"name":"Cube.002",
			"rotation":[
				0,
				0.7071068286895752,
				0,
				0.7071068286895752
			],
			"scale":[
				0.03737347945570946,
				0.7973890900611877,
				0.03737347945570946
			],
			"translation":[
				0.01238340139389038,
				0.08036273717880249,
				0.4251784384250641
			]
		}
	],
	"materials":[
		{
			"doubleSided":true,
			"extensions":{
				"KHR_materials_specular":{
					"specularFactor":0.5779815912246704
				},
				"KHR_materials_ior":{
					"ior":1.4500000476837158
				}
			},
			"name":"all.002",
			"pbrMetallicRoughness":{
				"baseColorFactor":[
					0.06095508858561516,
					0.5456519722938538,
					0.2777210772037506,
					1
				],
				"metallicFactor":0
			}
		},
		{
			"doubleSided":true,
			"extensions":{
				"KHR_materials_specular":{
					"specularFactor":0.5779815912246704
				},
				"KHR_materials_ior":{
					"ior":1.4500000476837158
				}
			},
			"name":"all.004",
			"pbrMetallicRoughness":{
				"baseColorFactor":[
					0.06095508858561516,
					0.5456519722938538,
					0.2777210772037506,
					1
				],
				"metallicFactor":0.6880733966827393,
				"roughnessFactor":0.4403669834136963
			}
		},
		{
			"doubleSided":true,
			"extensions":{
				"KHR_materials_specular":{
					"specularColorFactor":[
						1.5504586696624756,
						1.5504586696624756,
						1.5504586696624756
					]
				},
				"KHR_materials_ior":{
					"ior":1.4500000476837158
				}
			},
			"name":"all.005",
			"pbrMetallicRoughness":{
				"baseColorFactor":[
					0.021582268178462982,
					0.021582268178462982,
					0.021582268178462982,
					1
				],
				"roughnessFactor":0.2568807303905487
			}
		},
		{
			"doubleSided":true,
			"extensions":{
				"KHR_materials_specular":{
					"specularFactor":0.5779815912246704
				},
				"KHR_materials_ior":{
					"ior":1.4500000476837158
				}
			},
			"name":"all.013",
			"pbrMetallicRoughness":{
				"baseColorFactor":[
					0.09449516236782074,
					1,
					0.7366721630096436,
					1
				],
				"metallicFactor":0.14678898453712463,
				"roughnessFactor":0.3944953680038452
			}
		},
		{
			"doubleSided":true,
			"name":"ared.003",
			"pbrMetallicRoughness":{
				"baseColorFactor":[
					0.26664629578590393,
					0.6120744347572327,
					0.6302966475486755,
					1
				],
				"metallicFactor":0.8656716346740723
			}
		},
		{
			"doubleSided":true,
			"name":"ared",
			"pbrMetallicRoughness":{
				"baseColorFactor":[
					0.26664629578590393,
					0.6120744347572327,
					0.6302966475486755,
					1
				],
				"metallicFactor":0.8656716346740723
			}
		},
		{
			"doubleSided":true,
			"name":"Telaio2",
			"pbrMetallicRoughness":{
				"roughnessFactor":0.36000001430511475
			}
		},
		{
			"doubleSided":true,
			"extensions":{
				"KHR_materials_specular":{
					"specularFactor":0.5779815912246704
				},
				"KHR_materials_ior":{
					"ior":1.4500000476837158
				}
			},
			"name":"AZ4",
			"pbrMetallicRoughness":{
				"baseColorFactor":[
					0.14240776002407074,
					1,
					0.6378499269485474,
					1
				],
				"metallicFactor":0.20183485746383667,
				"roughnessFactor":0.8256881237030029
			}
		},
		{
			"doubleSided":true,
			"name":"asdf",
			"pbrMetallicRoughness":{
				"baseColorFactor":[
					1,
					0.8677200675010681,
					0,
					1
				],
				"metallicFactor":0,
				"roughnessFactor":0.5
			}
		}
	],
	"meshes":[
		{
			"name":"Cube.002",
			"primitives":[
				{
					"attributes":{
						"POSITION":0,
						"NORMAL":1,
						"TEXCOORD_0":2,
						"TEXCOORD_1":3,
						"TEXCOORD_2":4
					},
					"indices":5,
					"material":0
				},
				{
					"attributes":{
						"POSITION":6,
						"NORMAL":7,
						"TEXCOORD_0":8,
						"TEXCOORD_1":9,
						"TEXCOORD_2":10
					},
					"indices":11,
					"material":1
				},
				{
					"attributes":{
						"POSITION":12,
						"NORMAL":13,
						"TEXCOORD_0":14,
						"TEXCOORD_1":15,
						"TEXCOORD_2":16
					},
					"indices":17,
					"material":2
				},
				{
					"attributes":{
						"POSITION":18,
						"NORMAL":19,
						"TEXCOORD_0":20,
						"TEXCOORD_1":21,
						"TEXCOORD_2":22
					},
					"indices":23,
					"material":3
				},
				{
					"attributes":{
						"POSITION":24,
						"NORMAL":25,
						"TEXCOORD_0":26,
						"TEXCOORD_1":27,
						"TEXCOORD_2":28
					},
					"indices":29,
					"material":4
				},
				{
					"attributes":{
						"POSITION":30,
						"NORMAL":31,
						"TEXCOORD_0":32,
						"TEXCOORD_1":33,
						"TEXCOORD_2":34
					},
					"indices":35,
					"material":5
				},
				{
					"attributes":{
						"POSITION":36,
						"NORMAL":37,
						"TEXCOORD_0":38,
						"TEXCOORD_1":39,
						"TEXCOORD_2":40
					},
					"indices":41,
					"material":6
				},
				{
					"attributes":{
						"POSITION":42,
						"NORMAL":43,
						"TEXCOORD_0":44,
						"TEXCOORD_1":45,
						"TEXCOORD_2":46
					},
					"indices":47,
					"material":7
				},
				{
					"attributes":{
						"POSITION":48,
						"NORMAL":49,
						"TEXCOORD_0":50,
						"TEXCOORD_1":51,
						"TEXCOORD_2":52
					},
					"indices":53,
					"material":8
				}
			]
		}
	],
	"accessors":[
		{
			"bufferView":0,
			"componentType":5126,
			"count":3988,
			"max":[
				-92.87008666992188,
				5.752620220184326,
				13.77082347869873
			],
			"min":[
				-100.94515991210938,
				0.21196895837783813,
				6.999579429626465
			],
			"type":"VEC3"
		},
		{
			"bufferView":1,
			"componentType":5126,
			"count":3988,
			"type":"VEC3"
		},
		{
			"bufferView":2,
			"componentType":5126,
			"count":3988,
			"type":"VEC2"
		},
		{
			"bufferView":3,
			"componentType":5126,
			"count":3988,
			"type":"VEC2"
		},
		{
			"bufferView":4,
			"componentType":5126,
			"count":3988,
			"type":"VEC2"
		},
		{
			"bufferView":5,
			"componentType":5123,
			"count":6006,
			"type":"SCALAR"
		},
		{
			"bufferView":6,
			"componentType":5126,
			"count":37425,
			"max":[
				89.92961120605469,
				2.896700143814087,
				-117.26406860351562
			],
			"min":[
				-83.76290893554688,
				0.22078067064285278,
				-138.61032104492188
			],
			"type":"VEC3"
		},
		{
			"bufferView":7,
			"componentType":5126,
			"count":37425,
			"type":"VEC3"
		},
		{
			"bufferView":8,
			"componentType":5126,
			"count":37425,
			"type":"VEC2"
		},
		{
			"bufferView":9,
			"componentType":5126,
			"count":37425,
			"type":"VEC2"
		},
		{
			"bufferView":10,
			"componentType":5126,
			"count":37425,
			"type":"VEC2"
		},
		{
			"bufferView":11,
			"componentType":5123,
			"count":78840,
			"type":"SCALAR"
		},
		{
			"bufferView":12,
			"componentType":5126,
			"count":314558,
			"max":[
				104.25775146484375,
				5.2399373054504395,
				134.24859619140625
			],
			"min":[
				-103.79612731933594,
				0.18432480096817017,
				-145.89633178710938
			],
			"type":"VEC3"
		},
		{
			"bufferView":13,
			"componentType":5126,
			"count":314558,
			"type":"VEC3"
		},
		{
			"bufferView":14,
			"componentType":5126,
			"count":314558,
			"type":"VEC2"
		},
		{
			"bufferView":15,
			"componentType":5126,
			"count":314558,
			"type":"VEC2"
		},
		{
			"bufferView":16,
			"componentType":5126,
			"count":314558,
			"type":"VEC2"
		},
		{
			"bufferView":17,
			"componentType":5125,
			"count":637185,
			"type":"SCALAR"
		},
		{
			"bufferView":18,
			"componentType":5126,
			"count":7418,
			"max":[
				107.46299743652344,
				0.44693994522094727,
				142.9405517578125
			],
			"min":[
				-110.82298278808594,
				-0.08629650622606277,
				-163.971923828125
			],
			"type":"VEC3"
		},
		{
			"bufferView":19,
			"componentType":5126,
			"count":7418,
			"type":"VEC3"
		},
		{
			"bufferView":20,
			"componentType":5126,
			"count":7418,
			"type":"VEC2"
		},
		{
			"bufferView":21,
			"componentType":5126,
			"count":7418,
			"type":"VEC2"
		},
		{
			"bufferView":22,
			"componentType":5126,
			"count":7418,
			"type":"VEC2"
		},
		{
			"bufferView":23,
			"componentType":5123,
			"count":38124,
			"type":"SCALAR"
		},
		{
			"bufferView":24,
			"componentType":5126,
			"count":192,
			"max":[
				79.90254211425781,
				2.8824803829193115,
				-127.192138671875
			],
			"min":[
				-73.706787109375,
				2.8813374042510986,
				-128.58673095703125
			],
			"type":"VEC3"
		},
		{
			"bufferView":25,
			"componentType":5126,
			"count":192,
			"type":"VEC3"
		},
		{
			"bufferView":26,
			"componentType":5126,
			"count":192,
			"type":"VEC2"
		},
		{
			"bufferView":27,
			"componentType":5126,
			"count":192,
			"type":"VEC2"
		},
		{
			"bufferView":28,
			"componentType":5126,
			"count":192,
			"type":"VEC2"
		},
		{
			"bufferView":29,
			"componentType":5123,
			"count":540,
			"type":"SCALAR"
		},
		{
			"bufferView":30,
			"componentType":5126,
			"count":36,
			"max":[
				103.36383056640625,
				3.947157621383667,
				106.04388427734375
			],
			"min":[
				54.78185272216797,
				3.83078932762146,
				94.97097778320312
			],
			"type":"VEC3"
		},
		{
			"bufferView":31,
			"componentType":5126,
			"count":36,
			"type":"VEC3"
		},
		{
			"bufferView":32,
			"componentType":5126,
			"count":36,
			"type":"VEC2"
		},
		{
			"bufferView":33,
			"componentType":5126,
			"count":36,
			"type":"VEC2"
		},
		{
			"bufferView":34,
			"componentType":5126,
			"count":36,
			"type":"VEC2"
		},
		{
			"bufferView":35,
			"componentType":5123,
			"count":96,
			"type":"SCALAR"
		},
		{
			"bufferView":36,
			"componentType":5126,
			"count":8677,
			"max":[
				104.10952758789062,
				4.849719524383545,
				120.06758117675781
			],
			"min":[
				-87.22259521484375,
				0.7350886464118958,
				-73.43150329589844
			],
			"type":"VEC3"
		},
		{
			"bufferView":37,
			"componentType":5126,
			"count":8677,
			"type":"VEC3"
		},
		{
			"bufferView":38,
			"componentType":5126,
			"count":8677,
			"type":"VEC2"
		},
		{
			"bufferView":39,
			"componentType":5126,
			"count":8677,
			"type":"VEC2"
		},
		{
			"bufferView":40,
			"componentType":5126,
			"count":8677,
			"type":"VEC2"
		},
		{
			"bufferView":41,
			"componentType":5123,
			"count":36837,
			"type":"SCALAR"
		},
		{
			"bufferView":42,
			"componentType":5126,
			"count":24930,
			"max":[
				79.90254211425781,
				3.2918789386749268,
				-121.56756591796875
			],
			"min":[
				-94.73046875,
				0.20342689752578735,
				-129.43032836914062
			],
			"type":"VEC3"
		},
		{
			"bufferView":43,
			"componentType":5126,
			"count":24930,
			"type":"VEC3"
		},
		{
			"bufferView":44,
			"componentType":5126,
			"count":24930,
			"type":"VEC2"
		},
		{
			"bufferView":45,
			"componentType":5126,
			"count":24930,
			"type":"VEC2"
		},
		{
			"bufferView":46,
			"componentType":5126,
			"count":24930,
			"type":"VEC2"
		},
		{
			"bufferView":47,
			"componentType":5123,
			"count":115500,
			"type":"SCALAR"
		},
		{
			"bufferView":48,
			"componentType":5126,
			"count":20505,
			"max":[
				26.714698791503906,
				6.128906726837158,
				12.964140892028809
			],
			"min":[
				-99.30546569824219,
				0.20342785120010376,
				-129.4302978515625
			],
			"type":"VEC3"
		},
		{
			"bufferView":49,
			"componentType":5126,
			"count":20505,
			"type":"VEC3"
		},
		{
			"bufferView":50,
			"componentType":5126,
			"count":20505,
			"type":"VEC2"
		},
		{
			"bufferView":51,
			"componentType":5126,
			"count":20505,
			"type":"VEC2"
		},
		{
			"bufferView":52,
			"componentType":5126,
			"count":20505,
			"type":"VEC2"
		},
		{
			"bufferView":53,
			"componentType":5123,
			"count":82488,
			"type":"SCALAR"
		}
	],
	"bufferViews":[
		{
			"buffer":0,
			"byteLength":47856,
			"byteOffset":0,
			"target":34962
		},
		{
			"buffer":0,
			"byteLength":47856,
			"byteOffset":47856,
			"target":34962
		},
		{
			"buffer":0,
			"byteLength":31904,
			"byteOffset":95712,
			"target":34962
		},
		{
			"buffer":0,
			"byteLength":31904,
			"byteOffset":127616,
			"target":34962
		},
		{
			"buffer":0,
			"byteLength":31904,
			"byteOffset":159520,
			"target":34962
		},
		{
			"buffer":0,
			"byteLength":12012,
			"byteOffset":191424,
			"target":34963
		},
		{
			"buffer":0,
			"byteLength":449100,
			"byteOffset":203436,
			"target":34962
		},
		{
			"buffer":0,
			"byteLength":449100,
			"byteOffset":652536,
			"target":34962
		},
		{
			"buffer":0,
			"byteLength":299400,
			"byteOffset":1101636,
			"target":34962
		},
		{
			"buffer":0,
			"byteLength":299400,
			"byteOffset":1401036,
			"target":34962
		},
		{
			"buffer":0,
			"byteLength":299400,
			"byteOffset":1700436,
			"target":34962
		},
		{
			"buffer":0,
			"byteLength":157680,
			"byteOffset":1999836,
			"target":34963
		},
		{
			"buffer":0,
			"byteLength":3774696,
			"byteOffset":2157516,
			"target":34962
		},
		{
			"buffer":0,
			"byteLength":3774696,
			"byteOffset":5932212,
			"target":34962
		},
		{
			"buffer":0,
			"byteLength":2516464,
			"byteOffset":9706908,
			"target":34962
		},
		{
			"buffer":0,
			"byteLength":2516464,
			"byteOffset":12223372,
			"target":34962
		},
		{
			"buffer":0,
			"byteLength":2516464,
			"byteOffset":14739836,
			"target":34962
		},
		{
			"buffer":0,
			"byteLength":2548740,
			"byteOffset":17256300,
			"target":34963
		},
		{
			"buffer":0,
			"byteLength":89016,
			"byteOffset":19805040,
			"target":34962
		},
		{
			"buffer":0,
			"byteLength":89016,
			"byteOffset":19894056,
			"target":34962
		},
		{
			"buffer":0,
			"byteLength":59344,
			"byteOffset":19983072,
			"target":34962
		},
		{
			"buffer":0,
			"byteLength":59344,
			"byteOffset":20042416,
			"target":34962
		},
		{
			"buffer":0,
			"byteLength":59344,
			"byteOffset":20101760,
			"target":34962
		},
		{
			"buffer":0,
			"byteLength":76248,
			"byteOffset":20161104,
			"target":34963
		},
		{
			"buffer":0,
			"byteLength":2304,
			"byteOffset":20237352,
			"target":34962
		},
		{
			"buffer":0,
			"byteLength":2304,
			"byteOffset":20239656,
			"target":34962
		},
		{
			"buffer":0,
			"byteLength":1536,
			"byteOffset":20241960,
			"target":34962
		},
		{
			"buffer":0,
			"byteLength":1536,
			"byteOffset":20243496,
			"target":34962
		},
		{
			"buffer":0,
			"byteLength":1536,
			"byteOffset":20245032,
			"target":34962
		},
		{
			"buffer":0,
			"byteLength":1080,
			"byteOffset":20246568,
			"target":34963
		},
		{
			"buffer":0,
			"byteLength":432,
			"byteOffset":20247648,
			"target":34962
		},
		{
			"buffer":0,
			"byteLength":432,
			"byteOffset":20248080,
			"target":34962
		},
		{
			"buffer":0,
			"byteLength":288,
			"byteOffset":20248512,
			"target":34962
		},
		{
			"buffer":0,
			"byteLength":288,
			"byteOffset":20248800,
			"target":34962
		},
		{
			"buffer":0,
			"byteLength":288,
			"byteOffset":20249088,
			"target":34962
		},
		{
			"buffer":0,
			"byteLength":192,
			"byteOffset":20249376,
			"target":34963
		},
		{
			"buffer":0,
			"byteLength":104124,
			"byteOffset":20249568,
			"target":34962
		},
		{
			"buffer":0,
			"byteLength":104124,
			"byteOffset":20353692,
			"target":34962
		},
		{
			"buffer":0,
			"byteLength":69416,
			"byteOffset":20457816,
			"target":34962
		},
		{
			"buffer":0,
			"byteLength":69416,
			"byteOffset":20527232,
			"target":34962
		},
		{
			"buffer":0,
			"byteLength":69416,
			"byteOffset":20596648,
			"target":34962
		},
		{
			"buffer":0,
			"byteLength":73674,
			"byteOffset":20666064,
			"target":34963
		},
		{
			"buffer":0,
			"byteLength":299160,
			"byteOffset":20739740,
			"target":34962
		},
		{
			"buffer":0,
			"byteLength":299160,
			"byteOffset":21038900,
			"target":34962
		},
		{
			"buffer":0,
			"byteLength":199440,
			"byteOffset":21338060,
			"target":34962
		},
		{
			"buffer":0,
			"byteLength":199440,
			"byteOffset":21537500,
			"target":34962
		},
		{
			"buffer":0,
			"byteLength":199440,
			"byteOffset":21736940,
			"target":34962
		},
		{
			"buffer":0,
			"byteLength":231000,
			"byteOffset":21936380,
			"target":34963
		},
		{
			"buffer":0,
			"byteLength":246060,
			"byteOffset":22167380,
			"target":34962
		},
		{
			"buffer":0,
			"byteLength":246060,
			"byteOffset":22413440,
			"target":34962
		},
		{
			"buffer":0,
			"byteLength":164040,
			"byteOffset":22659500,
			"target":34962
		},
		{
			"buffer":0,
			"byteLength":164040,
			"byteOffset":22823540,
			"target":34962
		},
		{
			"buffer":0,
			"byteLength":164040,
			"byteOffset":22987580,
			"target":34962
		},
		{
			"buffer":0,
			"byteLength":164976,
			"byteOffset":23151620,
			"target":34963
		}
	],
	"buffers":[
		{
			"byteLength":23316596,
			"uri":"ind1.bin"
		}
	]
}
