{
	"asset":{
		"generator":"Khronos glTF Blender I/O v4.0.44",
		"version":"2.0"
	},
	"extensionsUsed":[
		"KHR_materials_specular",
		"KHR_materials_ior"
	],
	"scene":0,
	"scenes":[
		{
			"name":"Scene",
			"nodes":[
				0
			]
		}
	],
	"nodes":[
		{
			"mesh":0,
			"name":"Cube.001",
			"rotation":[
				0,
				0.7071068286895752,
				0,
				0.7071068286895752
			],
			"scale":[
				0.03737347945570946,
				0.7973890900611877,
				0.03737347945570946
			],
			"translation":[
				0.01238340139389038,
				0.08036273717880249,
				0.4251784384250641
			]
		}
	],
	"materials":[
		{
			"doubleSided":true,
			"extensions":{
				"KHR_materials_specular":{
					"specularFactor":0.5779815912246704
				},
				"KHR_materials_ior":{
					"ior":1.4500000476837158
				}
			},
			"name":"all.002",
			"pbrMetallicRoughness":{
				"baseColorFactor":[
					0.06095508858561516,
					0.5456519722938538,
					0.2777210772037506,
					1
				],
				"metallicFactor":0
			}
		},
		{
			"doubleSided":true,
			"emissiveFactor":[
				0.30000007152557373,
				0.017402314818456333,
				0
			],
			"name":"ared.002",
			"pbrMetallicRoughness":{
				"baseColorFactor":[
					0.8002588152885437,
					0.00666111009195447,
					0,
					1
				],
				"metallicFactor":0.8656716346740723
			}
		},
		{
			"doubleSided":true,
			"name":"ared",
			"pbrMetallicRoughness":{
				"baseColorFactor":[
					0.26664629578590393,
					0.6120744347572327,
					0.6302966475486755,
					1
				],
				"metallicFactor":0.8656716346740723
			}
		}
	],
	"meshes":[
		{
			"name":"Cube.010",
			"primitives":[
				{
					"attributes":{
						"POSITION":0,
						"NORMAL":1,
						"TEXCOORD_0":2,
						"TEXCOORD_1":3,
						"TEXCOORD_2":4
					},
					"indices":5,
					"material":0
				},
				{
					"attributes":{
						"POSITION":6,
						"NORMAL":7,
						"TEXCOORD_0":8,
						"TEXCOORD_1":9,
						"TEXCOORD_2":10
					},
					"indices":11,
					"material":1
				},
				{
					"attributes":{
						"POSITION":12,
						"NORMAL":13,
						"TEXCOORD_0":14,
						"TEXCOORD_1":15,
						"TEXCOORD_2":16
					},
					"indices":17,
					"material":2
				}
			]
		}
	],
	"accessors":[
		{
			"bufferView":0,
			"componentType":5126,
			"count":1902,
			"max":[
				-94.80191040039062,
				6.128906726837158,
				12.964140892028809
			],
			"min":[
				-99.30546569824219,
				4.92877721786499,
				10.145216941833496
			],
			"type":"VEC3"
		},
		{
			"bufferView":1,
			"componentType":5126,
			"count":1902,
			"type":"VEC3"
		},
		{
			"bufferView":2,
			"componentType":5126,
			"count":1902,
			"type":"VEC2"
		},
		{
			"bufferView":3,
			"componentType":5126,
			"count":1902,
			"type":"VEC2"
		},
		{
			"bufferView":4,
			"componentType":5126,
			"count":1902,
			"type":"VEC2"
		},
		{
			"bufferView":5,
			"componentType":5123,
			"count":3570,
			"type":"SCALAR"
		},
		{
			"bufferView":6,
			"componentType":5126,
			"count":240,
			"max":[
				-96.544921875,
				6.126387119293213,
				11.531989097595215
			],
			"min":[
				-97.5841064453125,
				6.07517671585083,
				10.439345359802246
			],
			"type":"VEC3"
		},
		{
			"bufferView":7,
			"componentType":5126,
			"count":240,
			"type":"VEC3"
		},
		{
			"bufferView":8,
			"componentType":5126,
			"count":240,
			"type":"VEC2"
		},
		{
			"bufferView":9,
			"componentType":5126,
			"count":240,
			"type":"VEC2"
		},
		{
			"bufferView":10,
			"componentType":5126,
			"count":240,
			"type":"VEC2"
		},
		{
			"bufferView":11,
			"componentType":5123,
			"count":240,
			"type":"SCALAR"
		},
		{
			"bufferView":12,
			"componentType":5126,
			"count":2156,
			"max":[
				104.09756469726562,
				4.7594990730285645,
				107.21694946289062
			],
			"min":[
				54.60093688964844,
				3.6964995861053467,
				-11.220795631408691
			],
			"type":"VEC3"
		},
		{
			"bufferView":13,
			"componentType":5126,
			"count":2156,
			"type":"VEC3"
		},
		{
			"bufferView":14,
			"componentType":5126,
			"count":2156,
			"type":"VEC2"
		},
		{
			"bufferView":15,
			"componentType":5126,
			"count":2156,
			"type":"VEC2"
		},
		{
			"bufferView":16,
			"componentType":5126,
			"count":2156,
			"type":"VEC2"
		},
		{
			"bufferView":17,
			"componentType":5123,
			"count":11520,
			"type":"SCALAR"
		}
	],
	"bufferViews":[
		{
			"buffer":0,
			"byteLength":22824,
			"byteOffset":0,
			"target":34962
		},
		{
			"buffer":0,
			"byteLength":22824,
			"byteOffset":22824,
			"target":34962
		},
		{
			"buffer":0,
			"byteLength":15216,
			"byteOffset":45648,
			"target":34962
		},
		{
			"buffer":0,
			"byteLength":15216,
			"byteOffset":60864,
			"target":34962
		},
		{
			"buffer":0,
			"byteLength":15216,
			"byteOffset":76080,
			"target":34962
		},
		{
			"buffer":0,
			"byteLength":7140,
			"byteOffset":91296,
			"target":34963
		},
		{
			"buffer":0,
			"byteLength":2880,
			"byteOffset":98436,
			"target":34962
		},
		{
			"buffer":0,
			"byteLength":2880,
			"byteOffset":101316,
			"target":34962
		},
		{
			"buffer":0,
			"byteLength":1920,
			"byteOffset":104196,
			"target":34962
		},
		{
			"buffer":0,
			"byteLength":1920,
			"byteOffset":106116,
			"target":34962
		},
		{
			"buffer":0,
			"byteLength":1920,
			"byteOffset":108036,
			"target":34962
		},
		{
			"buffer":0,
			"byteLength":480,
			"byteOffset":109956,
			"target":34963
		},
		{
			"buffer":0,
			"byteLength":25872,
			"byteOffset":110436,
			"target":34962
		},
		{
			"buffer":0,
			"byteLength":25872,
			"byteOffset":136308,
			"target":34962
		},
		{
			"buffer":0,
			"byteLength":17248,
			"byteOffset":162180,
			"target":34962
		},
		{
			"buffer":0,
			"byteLength":17248,
			"byteOffset":179428,
			"target":34962
		},
		{
			"buffer":0,
			"byteLength":17248,
			"byteOffset":196676,
			"target":34962
		},
		{
			"buffer":0,
			"byteLength":23040,
			"byteOffset":213924,
			"target":34963
		}
	],
	"buffers":[
		{
			"byteLength":236964,
			"uri":"ind2.bin"
		}
	]
}
